%TF.GenerationSoftware,KiCad,Pcbnew,10.0.0-10.0.0~ubuntu22.04.1*%
%TF.CreationDate,2026-09-29T12:21:00-03:00*%
%TF.ProjectId,GNSS_POD_PROT,474e5353-5f50-44f4-945f-50524f542e6b,0.1.0*%
%TF.SameCoordinates,Original*%
%TF.FileFunction,Copper,L1,Top*%
%TF.FilePolarity,Positive*%
%FSLAX46Y46*%
G04 Gerber Fmt 4.6, Leading zero omitted, Abs format (unit mm)*
G04 Created by KiCad (PCBNEW 10.0.0-10.0.0~ubuntu22.04.1) date 2026-09-29 12:21:00*
%MOMM*%
%LPD*%
G01*
G04 APERTURE LIST*
%TA.AperFunction,ComponentPad*%
%ADD10R,1.416000X1.416000*%
%TD*%
%TA.AperFunction,ComponentPad*%
%ADD11C,1.416000*%
%TD*%
%TA.AperFunction,ComponentPad*%
%ADD12R,1.700000X1.700000*%
%TD*%
%TA.AperFunction,ComponentPad*%
%ADD13C,1.700000*%
%TD*%
G04 APERTURE END LIST*
D10*
%TO.P,J3,1,1_1*%
%TO.N,unconnected-(J3-Pad1)*%
X128300000Y-83400000D03*
D11*
%TO.P,J3,2,2_2*%
%TO.N,VCC*%
X128300000Y-85400000D03*
%TO.P,J3,3,3_3*%
%TO.N,unconnected-(J3-Pad3)*%
X130300000Y-83400000D03*
%TO.P,J3,4,4_4*%
%TO.N,unconnected-(J3-Pad4)*%
X130300000Y-85400000D03*
%TO.P,J3,5,5_5*%
%TO.N,unconnected-(J3-Pad5)*%
X132300000Y-83400000D03*
%TO.P,J3,6,6_6*%
%TO.N,unconnected-(J3-Pad6)*%
X132300000Y-85400000D03*
%TO.P,J3,7,7_7*%
%TO.N,unconnected-(J3-Pad7)*%
X134300000Y-83400000D03*
%TO.P,J3,8,8_8*%
%TO.N,unconnected-(J3-Pad8)*%
X134300000Y-85400000D03*
%TO.P,J3,9,9_9*%
%TO.N,unconnected-(J3-Pad9)*%
X136300000Y-83400000D03*
%TO.P,J3,10,10_10*%
%TO.N,GNDREF*%
X136300000Y-85400000D03*
%TO.P,J3,11,11_11*%
%TO.N,/TX1*%
X138300000Y-83400000D03*
%TO.P,J3,12,12_12*%
%TO.N,/RX1*%
X138300000Y-85400000D03*
%TO.P,J3,13,13_13*%
%TO.N,GNDREF*%
X140300000Y-83400000D03*
%TO.P,J3,14,14_14*%
%TO.N,unconnected-(J3-Pad14)*%
X140300000Y-85400000D03*
%TO.P,J3,15,15_15*%
%TO.N,unconnected-(J3-Pad15)*%
X142300000Y-83400000D03*
%TO.P,J3,16,16_16*%
%TO.N,GNDREF*%
X142300000Y-85400000D03*
%TO.P,J3,17,17_17*%
%TO.N,unconnected-(J3-Pad17)*%
X144300000Y-83400000D03*
%TO.P,J3,18,18_18*%
%TO.N,GNDREF*%
X144300000Y-85400000D03*
%TO.P,J3,19,19_19*%
%TO.N,unconnected-(J3-Pad19)*%
X146300000Y-83400000D03*
%TO.P,J3,20,20_20*%
%TO.N,unconnected-(J3-Pad20)*%
X146300000Y-85400000D03*
%TD*%
D12*
%TO.P,J2,1,Pin_1_1*%
%TO.N,/TX1*%
X143950000Y-69450000D03*
D13*
%TO.P,J2,2,Pin_2_2*%
%TO.N,/RX1*%
X146490000Y-69450000D03*
%TD*%
D12*
%TO.P,J1,1,Pin_1_1*%
%TO.N,VCC*%
X128090000Y-69450000D03*
D13*
%TO.P,J1,2,Pin_2_2*%
%TO.N,GNDREF*%
X130630000Y-69450000D03*
%TD*%
%TA.AperFunction,Conductor*%
%TO.N,GNDREF*%
G36*
X153642539Y-65770185D02*
G01*
X153688294Y-65822989D01*
X153699500Y-65874500D01*
X153699500Y-89375500D01*
X153679815Y-89442539D01*
X153627011Y-89488294D01*
X153575500Y-89499500D01*
X120824500Y-89499500D01*
X120757461Y-89479815D01*
X120711706Y-89427011D01*
X120700500Y-89375500D01*
X120700500Y-82644135D01*
X127091500Y-82644135D01*
X127091500Y-84155870D01*
X127091501Y-84155876D01*
X127097908Y-84215483D01*
X127148202Y-84350328D01*
X127148206Y-84350335D01*
X127185386Y-84400000D01*
X127234454Y-84465546D01*
X127298963Y-84513838D01*
X127340834Y-84569771D01*
X127345818Y-84639463D01*
X127324970Y-84685989D01*
X127266400Y-84766604D01*
X127180040Y-84936092D01*
X127121256Y-85117008D01*
X127091500Y-85304883D01*
X127091500Y-85495116D01*
X127121256Y-85682991D01*
X127180040Y-85863907D01*
X127266398Y-86033392D01*
X127378208Y-86187285D01*
X127512715Y-86321792D01*
X127666608Y-86433602D01*
X127746683Y-86474402D01*
X127836092Y-86519959D01*
X127836094Y-86519959D01*
X127836097Y-86519961D01*
X127933070Y-86551469D01*
X128017008Y-86578743D01*
X128204884Y-86608500D01*
X128204889Y-86608500D01*
X128395116Y-86608500D01*
X128582991Y-86578743D01*
X128763903Y-86519961D01*
X128933392Y-86433602D01*
X129087285Y-86321792D01*
X129212319Y-86196758D01*
X129273642Y-86163273D01*
X129343334Y-86168257D01*
X129387681Y-86196758D01*
X129512715Y-86321792D01*
X129666608Y-86433602D01*
X129746683Y-86474402D01*
X129836092Y-86519959D01*
X129836094Y-86519959D01*
X129836097Y-86519961D01*
X129933070Y-86551469D01*
X130017008Y-86578743D01*
X130204884Y-86608500D01*
X130204889Y-86608500D01*
X130395116Y-86608500D01*
X130582991Y-86578743D01*
X130763903Y-86519961D01*
X130933392Y-86433602D01*
X131087285Y-86321792D01*
X131212319Y-86196758D01*
X131273642Y-86163273D01*
X131343334Y-86168257D01*
X131387681Y-86196758D01*
X131512715Y-86321792D01*
X131666608Y-86433602D01*
X131746683Y-86474402D01*
X131836092Y-86519959D01*
X131836094Y-86519959D01*
X131836097Y-86519961D01*
X131933070Y-86551469D01*
X132017008Y-86578743D01*
X132204884Y-86608500D01*
X132204889Y-86608500D01*
X132395116Y-86608500D01*
X132582991Y-86578743D01*
X132763903Y-86519961D01*
X132933392Y-86433602D01*
X133087285Y-86321792D01*
X133212319Y-86196758D01*
X133273642Y-86163273D01*
X133343334Y-86168257D01*
X133387681Y-86196758D01*
X133512715Y-86321792D01*
X133666608Y-86433602D01*
X133746683Y-86474402D01*
X133836092Y-86519959D01*
X133836094Y-86519959D01*
X133836097Y-86519961D01*
X133933070Y-86551469D01*
X134017008Y-86578743D01*
X134204884Y-86608500D01*
X134204889Y-86608500D01*
X134395116Y-86608500D01*
X134582991Y-86578743D01*
X134763903Y-86519961D01*
X134933392Y-86433602D01*
X135087285Y-86321792D01*
X135221792Y-86187285D01*
X135333602Y-86033392D01*
X135419961Y-85863903D01*
X135478743Y-85682991D01*
X135508500Y-85495116D01*
X135508500Y-85304883D01*
X135478743Y-85117008D01*
X135419959Y-84936092D01*
X135333601Y-84766607D01*
X135299999Y-84720358D01*
X135221792Y-84612715D01*
X135096758Y-84487681D01*
X135063273Y-84426358D01*
X135068257Y-84356666D01*
X135096758Y-84312319D01*
X135212319Y-84196758D01*
X135273642Y-84163273D01*
X135343334Y-84168257D01*
X135387681Y-84196758D01*
X135512715Y-84321792D01*
X135666608Y-84433602D01*
X135729296Y-84465543D01*
X135836092Y-84519959D01*
X135836094Y-84519959D01*
X135836097Y-84519961D01*
X135933070Y-84551469D01*
X136017008Y-84578743D01*
X136204884Y-84608500D01*
X136204889Y-84608500D01*
X136395116Y-84608500D01*
X136582991Y-84578743D01*
X136763903Y-84519961D01*
X136933392Y-84433602D01*
X137087285Y-84321792D01*
X137212319Y-84196758D01*
X137273642Y-84163273D01*
X137343334Y-84168257D01*
X137387681Y-84196758D01*
X137503242Y-84312319D01*
X137536727Y-84373642D01*
X137531743Y-84443334D01*
X137503242Y-84487681D01*
X137378210Y-84612712D01*
X137378210Y-84612713D01*
X137378208Y-84612715D01*
X137330189Y-84678806D01*
X137266398Y-84766607D01*
X137180040Y-84936092D01*
X137121256Y-85117008D01*
X137091500Y-85304883D01*
X137091500Y-85495116D01*
X137121256Y-85682991D01*
X137180040Y-85863907D01*
X137266398Y-86033392D01*
X137378208Y-86187285D01*
X137512715Y-86321792D01*
X137666608Y-86433602D01*
X137746683Y-86474402D01*
X137836092Y-86519959D01*
X137836094Y-86519959D01*
X137836097Y-86519961D01*
X137933070Y-86551469D01*
X138017008Y-86578743D01*
X138204884Y-86608500D01*
X138204889Y-86608500D01*
X138395116Y-86608500D01*
X138582991Y-86578743D01*
X138763903Y-86519961D01*
X138933392Y-86433602D01*
X139087285Y-86321792D01*
X139212319Y-86196758D01*
X139273642Y-86163273D01*
X139343334Y-86168257D01*
X139387681Y-86196758D01*
X139512715Y-86321792D01*
X139666608Y-86433602D01*
X139746683Y-86474402D01*
X139836092Y-86519959D01*
X139836094Y-86519959D01*
X139836097Y-86519961D01*
X139933070Y-86551469D01*
X140017008Y-86578743D01*
X140204884Y-86608500D01*
X140204889Y-86608500D01*
X140395116Y-86608500D01*
X140582991Y-86578743D01*
X140763903Y-86519961D01*
X140933392Y-86433602D01*
X141087285Y-86321792D01*
X141221792Y-86187285D01*
X141333602Y-86033392D01*
X141419961Y-85863903D01*
X141478743Y-85682991D01*
X141508500Y-85495116D01*
X141508500Y-85304883D01*
X141478743Y-85117008D01*
X141419959Y-84936092D01*
X141333601Y-84766607D01*
X141299999Y-84720358D01*
X141221792Y-84612715D01*
X141087285Y-84478208D01*
X140933392Y-84366398D01*
X140901853Y-84350328D01*
X140763907Y-84280040D01*
X140582991Y-84221256D01*
X140395116Y-84191500D01*
X140395111Y-84191500D01*
X140204889Y-84191500D01*
X140204884Y-84191500D01*
X140017008Y-84221256D01*
X139836092Y-84280040D01*
X139666607Y-84366398D01*
X139584080Y-84426358D01*
X139512715Y-84478208D01*
X139512713Y-84478210D01*
X139512712Y-84478210D01*
X139387681Y-84603242D01*
X139326358Y-84636727D01*
X139256666Y-84631743D01*
X139212319Y-84603242D01*
X139096758Y-84487681D01*
X139063273Y-84426358D01*
X139068257Y-84356666D01*
X139096758Y-84312319D01*
X139129038Y-84280039D01*
X139221792Y-84187285D01*
X139333602Y-84033392D01*
X139419961Y-83863903D01*
X139478743Y-83682991D01*
X139508500Y-83495116D01*
X139508500Y-83304883D01*
X141091500Y-83304883D01*
X141091500Y-83495116D01*
X141121256Y-83682991D01*
X141180040Y-83863907D01*
X141266398Y-84033392D01*
X141378208Y-84187285D01*
X141512715Y-84321792D01*
X141666608Y-84433602D01*
X141729296Y-84465543D01*
X141836092Y-84519959D01*
X141836094Y-84519959D01*
X141836097Y-84519961D01*
X141933070Y-84551469D01*
X142017008Y-84578743D01*
X142204884Y-84608500D01*
X142204889Y-84608500D01*
X142395116Y-84608500D01*
X142582991Y-84578743D01*
X142763903Y-84519961D01*
X142933392Y-84433602D01*
X143087285Y-84321792D01*
X143212319Y-84196758D01*
X143273642Y-84163273D01*
X143343334Y-84168257D01*
X143387681Y-84196758D01*
X143512715Y-84321792D01*
X143666608Y-84433602D01*
X143729296Y-84465543D01*
X143836092Y-84519959D01*
X143836094Y-84519959D01*
X143836097Y-84519961D01*
X143933070Y-84551469D01*
X144017008Y-84578743D01*
X144204884Y-84608500D01*
X144204889Y-84608500D01*
X144395116Y-84608500D01*
X144582991Y-84578743D01*
X144763903Y-84519961D01*
X144933392Y-84433602D01*
X145087285Y-84321792D01*
X145212319Y-84196758D01*
X145273642Y-84163273D01*
X145343334Y-84168257D01*
X145387681Y-84196758D01*
X145503242Y-84312319D01*
X145536727Y-84373642D01*
X145531743Y-84443334D01*
X145503242Y-84487681D01*
X145378210Y-84612712D01*
X145378210Y-84612713D01*
X145378208Y-84612715D01*
X145330189Y-84678806D01*
X145266398Y-84766607D01*
X145180040Y-84936092D01*
X145121256Y-85117008D01*
X145091500Y-85304883D01*
X145091500Y-85495116D01*
X145121256Y-85682991D01*
X145180040Y-85863907D01*
X145266398Y-86033392D01*
X145378208Y-86187285D01*
X145512715Y-86321792D01*
X145666608Y-86433602D01*
X145746683Y-86474402D01*
X145836092Y-86519959D01*
X145836094Y-86519959D01*
X145836097Y-86519961D01*
X145933070Y-86551469D01*
X146017008Y-86578743D01*
X146204884Y-86608500D01*
X146204889Y-86608500D01*
X146395116Y-86608500D01*
X146582991Y-86578743D01*
X146763903Y-86519961D01*
X146933392Y-86433602D01*
X147087285Y-86321792D01*
X147221792Y-86187285D01*
X147333602Y-86033392D01*
X147419961Y-85863903D01*
X147478743Y-85682991D01*
X147508500Y-85495116D01*
X147508500Y-85304883D01*
X147478743Y-85117008D01*
X147419959Y-84936092D01*
X147333601Y-84766607D01*
X147299999Y-84720358D01*
X147221792Y-84612715D01*
X147096758Y-84487681D01*
X147063273Y-84426358D01*
X147068257Y-84356666D01*
X147096758Y-84312319D01*
X147129038Y-84280039D01*
X147221792Y-84187285D01*
X147333602Y-84033392D01*
X147419961Y-83863903D01*
X147478743Y-83682991D01*
X147508500Y-83495116D01*
X147508500Y-83304883D01*
X147478743Y-83117008D01*
X147419959Y-82936092D01*
X147333601Y-82766607D01*
X147299999Y-82720358D01*
X147221792Y-82612715D01*
X147087285Y-82478208D01*
X146933392Y-82366398D01*
X146763907Y-82280040D01*
X146582991Y-82221256D01*
X146395116Y-82191500D01*
X146395111Y-82191500D01*
X146204889Y-82191500D01*
X146204884Y-82191500D01*
X146017008Y-82221256D01*
X145836092Y-82280040D01*
X145666607Y-82366398D01*
X145621786Y-82398963D01*
X145512715Y-82478208D01*
X145512713Y-82478210D01*
X145512712Y-82478210D01*
X145387681Y-82603242D01*
X145326358Y-82636727D01*
X145256666Y-82631743D01*
X145212319Y-82603242D01*
X145087287Y-82478210D01*
X145087285Y-82478208D01*
X144933392Y-82366398D01*
X144763907Y-82280040D01*
X144582991Y-82221256D01*
X144395116Y-82191500D01*
X144395111Y-82191500D01*
X144204889Y-82191500D01*
X144204884Y-82191500D01*
X144017008Y-82221256D01*
X143836092Y-82280040D01*
X143666607Y-82366398D01*
X143621786Y-82398963D01*
X143512715Y-82478208D01*
X143512713Y-82478210D01*
X143512712Y-82478210D01*
X143387681Y-82603242D01*
X143326358Y-82636727D01*
X143256666Y-82631743D01*
X143212319Y-82603242D01*
X143087287Y-82478210D01*
X143087285Y-82478208D01*
X142933392Y-82366398D01*
X142763907Y-82280040D01*
X142582991Y-82221256D01*
X142395116Y-82191500D01*
X142395111Y-82191500D01*
X142204889Y-82191500D01*
X142204884Y-82191500D01*
X142017008Y-82221256D01*
X141836092Y-82280040D01*
X141666607Y-82366398D01*
X141621786Y-82398963D01*
X141512715Y-82478208D01*
X141512713Y-82478210D01*
X141512712Y-82478210D01*
X141378210Y-82612712D01*
X141378210Y-82612713D01*
X141378208Y-82612715D01*
X141355394Y-82644116D01*
X141266398Y-82766607D01*
X141180040Y-82936092D01*
X141121256Y-83117008D01*
X141091500Y-83304883D01*
X139508500Y-83304883D01*
X139478743Y-83117008D01*
X139419959Y-82936092D01*
X139333601Y-82766607D01*
X139299999Y-82720358D01*
X139221792Y-82612715D01*
X139087285Y-82478208D01*
X138933392Y-82366398D01*
X138763907Y-82280040D01*
X138582991Y-82221256D01*
X138395116Y-82191500D01*
X138395111Y-82191500D01*
X138204889Y-82191500D01*
X138204884Y-82191500D01*
X138017008Y-82221256D01*
X137836092Y-82280040D01*
X137666607Y-82366398D01*
X137621786Y-82398963D01*
X137512715Y-82478208D01*
X137512713Y-82478210D01*
X137512712Y-82478210D01*
X137387681Y-82603242D01*
X137326358Y-82636727D01*
X137256666Y-82631743D01*
X137212319Y-82603242D01*
X137087287Y-82478210D01*
X137087285Y-82478208D01*
X136933392Y-82366398D01*
X136763907Y-82280040D01*
X136582991Y-82221256D01*
X136395116Y-82191500D01*
X136395111Y-82191500D01*
X136204889Y-82191500D01*
X136204884Y-82191500D01*
X136017008Y-82221256D01*
X135836092Y-82280040D01*
X135666607Y-82366398D01*
X135621786Y-82398963D01*
X135512715Y-82478208D01*
X135512713Y-82478210D01*
X135512712Y-82478210D01*
X135387681Y-82603242D01*
X135326358Y-82636727D01*
X135256666Y-82631743D01*
X135212319Y-82603242D01*
X135087287Y-82478210D01*
X135087285Y-82478208D01*
X134933392Y-82366398D01*
X134763907Y-82280040D01*
X134582991Y-82221256D01*
X134395116Y-82191500D01*
X134395111Y-82191500D01*
X134204889Y-82191500D01*
X134204884Y-82191500D01*
X134017008Y-82221256D01*
X133836092Y-82280040D01*
X133666607Y-82366398D01*
X133621786Y-82398963D01*
X133512715Y-82478208D01*
X133512713Y-82478210D01*
X133512712Y-82478210D01*
X133387681Y-82603242D01*
X133326358Y-82636727D01*
X133256666Y-82631743D01*
X133212319Y-82603242D01*
X133087287Y-82478210D01*
X133087285Y-82478208D01*
X132933392Y-82366398D01*
X132763907Y-82280040D01*
X132582991Y-82221256D01*
X132395116Y-82191500D01*
X132395111Y-82191500D01*
X132204889Y-82191500D01*
X132204884Y-82191500D01*
X132017008Y-82221256D01*
X131836092Y-82280040D01*
X131666607Y-82366398D01*
X131621786Y-82398963D01*
X131512715Y-82478208D01*
X131512713Y-82478210D01*
X131512712Y-82478210D01*
X131387681Y-82603242D01*
X131326358Y-82636727D01*
X131256666Y-82631743D01*
X131212319Y-82603242D01*
X131087287Y-82478210D01*
X131087285Y-82478208D01*
X130933392Y-82366398D01*
X130763907Y-82280040D01*
X130582991Y-82221256D01*
X130395116Y-82191500D01*
X130395111Y-82191500D01*
X130204889Y-82191500D01*
X130204884Y-82191500D01*
X130017008Y-82221256D01*
X129836092Y-82280040D01*
X129666604Y-82366400D01*
X129585989Y-82424970D01*
X129520183Y-82448450D01*
X129452129Y-82432624D01*
X129413837Y-82398963D01*
X129365546Y-82334454D01*
X129342709Y-82317358D01*
X129250335Y-82248206D01*
X129250328Y-82248202D01*
X129115482Y-82197908D01*
X129115483Y-82197908D01*
X129055883Y-82191501D01*
X129055881Y-82191500D01*
X129055873Y-82191500D01*
X129055864Y-82191500D01*
X127544129Y-82191500D01*
X127544123Y-82191501D01*
X127484516Y-82197908D01*
X127349671Y-82248202D01*
X127349664Y-82248206D01*
X127234455Y-82334452D01*
X127234452Y-82334455D01*
X127148206Y-82449664D01*
X127148202Y-82449671D01*
X127097908Y-82584517D01*
X127091501Y-82644116D01*
X127091500Y-82644135D01*
X120700500Y-82644135D01*
X120700500Y-68552135D01*
X126739500Y-68552135D01*
X126739500Y-70347870D01*
X126739501Y-70347876D01*
X126745908Y-70407483D01*
X126796202Y-70542328D01*
X126796206Y-70542335D01*
X126882452Y-70657544D01*
X126882455Y-70657547D01*
X126997664Y-70743793D01*
X126997671Y-70743797D01*
X127132517Y-70794091D01*
X127132516Y-70794091D01*
X127139444Y-70794835D01*
X127192127Y-70800500D01*
X128987872Y-70800499D01*
X129047483Y-70794091D01*
X129182331Y-70743796D01*
X129297546Y-70657546D01*
X129383796Y-70542331D01*
X129434091Y-70407483D01*
X129440500Y-70347873D01*
X129440499Y-68552135D01*
X142599500Y-68552135D01*
X142599500Y-70347870D01*
X142599501Y-70347876D01*
X142605908Y-70407483D01*
X142656202Y-70542328D01*
X142656206Y-70542335D01*
X142742452Y-70657544D01*
X142742455Y-70657547D01*
X142857664Y-70743793D01*
X142857671Y-70743797D01*
X142992517Y-70794091D01*
X142992516Y-70794091D01*
X142999444Y-70794835D01*
X143052127Y-70800500D01*
X144847872Y-70800499D01*
X144907483Y-70794091D01*
X145042331Y-70743796D01*
X145157546Y-70657546D01*
X145243796Y-70542331D01*
X145292810Y-70410916D01*
X145334681Y-70354984D01*
X145400145Y-70330566D01*
X145468418Y-70345417D01*
X145496673Y-70366569D01*
X145610213Y-70480109D01*
X145782179Y-70605048D01*
X145782181Y-70605049D01*
X145782184Y-70605051D01*
X145971588Y-70701557D01*
X146173757Y-70767246D01*
X146383713Y-70800500D01*
X146383714Y-70800500D01*
X146596286Y-70800500D01*
X146596287Y-70800500D01*
X146806243Y-70767246D01*
X147008412Y-70701557D01*
X147197816Y-70605051D01*
X147284138Y-70542335D01*
X147369786Y-70480109D01*
X147369788Y-70480106D01*
X147369792Y-70480104D01*
X147520104Y-70329792D01*
X147520106Y-70329788D01*
X147520109Y-70329786D01*
X147645048Y-70157820D01*
X147645047Y-70157820D01*
X147645051Y-70157816D01*
X147741557Y-69968412D01*
X147807246Y-69766243D01*
X147840500Y-69556287D01*
X147840500Y-69343713D01*
X147807246Y-69133757D01*
X147741557Y-68931588D01*
X147645051Y-68742184D01*
X147645049Y-68742181D01*
X147645048Y-68742179D01*
X147520109Y-68570213D01*
X147369786Y-68419890D01*
X147197820Y-68294951D01*
X147008414Y-68198444D01*
X147008413Y-68198443D01*
X147008412Y-68198443D01*
X146806243Y-68132754D01*
X146806241Y-68132753D01*
X146806240Y-68132753D01*
X146644957Y-68107208D01*
X146596287Y-68099500D01*
X146383713Y-68099500D01*
X146335042Y-68107208D01*
X146173760Y-68132753D01*
X145971585Y-68198444D01*
X145782179Y-68294951D01*
X145610215Y-68419889D01*
X145496673Y-68533431D01*
X145435350Y-68566915D01*
X145365658Y-68561931D01*
X145309725Y-68520059D01*
X145292810Y-68489082D01*
X145243797Y-68357671D01*
X145243793Y-68357664D01*
X145157547Y-68242455D01*
X145157544Y-68242452D01*
X145042335Y-68156206D01*
X145042328Y-68156202D01*
X144907482Y-68105908D01*
X144907483Y-68105908D01*
X144847883Y-68099501D01*
X144847881Y-68099500D01*
X144847873Y-68099500D01*
X144847864Y-68099500D01*
X143052129Y-68099500D01*
X143052123Y-68099501D01*
X142992516Y-68105908D01*
X142857671Y-68156202D01*
X142857664Y-68156206D01*
X142742455Y-68242452D01*
X142742452Y-68242455D01*
X142656206Y-68357664D01*
X142656202Y-68357671D01*
X142605908Y-68492517D01*
X142599501Y-68552116D01*
X142599500Y-68552135D01*
X129440499Y-68552135D01*
X129440499Y-68552128D01*
X129434091Y-68492517D01*
X129383796Y-68357669D01*
X129383795Y-68357668D01*
X129383793Y-68357664D01*
X129297547Y-68242455D01*
X129297544Y-68242452D01*
X129182335Y-68156206D01*
X129182328Y-68156202D01*
X129047482Y-68105908D01*
X129047483Y-68105908D01*
X128987883Y-68099501D01*
X128987881Y-68099500D01*
X128987873Y-68099500D01*
X128987864Y-68099500D01*
X127192129Y-68099500D01*
X127192123Y-68099501D01*
X127132516Y-68105908D01*
X126997671Y-68156202D01*
X126997664Y-68156206D01*
X126882455Y-68242452D01*
X126882452Y-68242455D01*
X126796206Y-68357664D01*
X126796202Y-68357671D01*
X126745908Y-68492517D01*
X126739501Y-68552116D01*
X126739500Y-68552135D01*
X120700500Y-68552135D01*
X120700500Y-65874500D01*
X120720185Y-65807461D01*
X120772989Y-65761706D01*
X120824500Y-65750500D01*
X153575500Y-65750500D01*
X153642539Y-65770185D01*
G37*
%TD.AperFunction*%
%TD*%
M02*
